<svg xmlns="http://www.w3.org/2000/svg" width="218.764" height="62.203" viewBox="0 0 218.764 62.203">
  <g id="Group_55" data-name="Group 55" transform="translate(-263.937 -173.272)">
    <g id="icon-paw" transform="translate(296.751 122.103) rotate(25)">
      <g id="Group_46" data-name="Group 46" transform="translate(13.525 69.472)">
        <g id="Group_45" data-name="Group 45">
          <path id="Path_283" data-name="Path 283" d="M139.455,213.654a18.523,18.523,0,0,0-13.218-5.435,18.759,18.759,0,0,0-18.567,18.815v2.633a10.476,10.476,0,0,0,15.449,9.22,6.688,6.688,0,0,1,6.368,0,10.476,10.476,0,0,0,15.449-9.22v-2.815A18.509,18.509,0,0,0,139.455,213.654Z" transform="translate(-107.67 -208.22)"/>
        </g>
      </g>
      <g id="Group_48" data-name="Group 48" transform="translate(0 62.715)">
        <g id="Group_47" data-name="Group 47" transform="translate(0 0)">
          <path id="Path_284" data-name="Path 284" d="M12.279,156.518l-1.008-.733a7.108,7.108,0,0,0-9.917,1.571h0a7.108,7.108,0,0,0,1.571,9.917l1.008.733a7.1,7.1,0,1,0,8.346-11.488Z" transform="translate(0 -154.432)"/>
        </g>
      </g>
      <g id="Group_50" data-name="Group 50" transform="translate(49.113 62.884)">
        <g id="Group_49" data-name="Group 49" transform="translate(0 0)">
          <path id="Path_285" data-name="Path 285" d="M404.821,158.7a7.108,7.108,0,0,0-9.917-1.571l-1.008.733a7.1,7.1,0,0,0,8.347,11.488l1.008-.733A7.108,7.108,0,0,0,404.821,158.7Z" transform="translate(-390.971 -155.777)"/>
        </g>
      </g>
      <g id="Group_52" data-name="Group 52" transform="translate(14.842 49.539)">
        <g id="Group_51" data-name="Group 51">
          <path id="Path_286" data-name="Path 286" d="M133.033,57.6l-1.025-3.155A7.1,7.1,0,1,0,118.5,58.836l1.025,3.155a7.1,7.1,0,0,0,8.947,4.559h0a7.1,7.1,0,0,0,4.558-8.947Z" transform="translate(-118.152 -49.539)"/>
        </g>
      </g>
      <g id="Group_54" data-name="Group 54" transform="translate(34.242 49.606)">
        <g id="Group_53" data-name="Group 53">
          <path id="Path_287" data-name="Path 287" d="M282.909,50.423a7.108,7.108,0,0,0-8.946,4.559l-1.025,3.155a7.1,7.1,0,1,0,13.505,4.388l1.025-3.155A7.108,7.108,0,0,0,282.909,50.423Z" transform="translate(-272.586 -50.075)"/>
        </g>
      </g>
    </g>
    <path id="Path_288" data-name="Path 288" d="M13.144-.053c.8-.159,1.325-.477,1.325-1.06,0-.742-1.113-2.385-1.113-5.777,0-.477.212-.848.636-.848,1.007,0,2.279,3.975,4.452,3.975,3.286,0,9.911-5.247,9.911-18.179,0-7.208-3.445-12.773-16.059-12.773-9.858,0-11.024,1.749-11.024,16.536,0,6.731.424,12.667,1.643,17.013C3.5.848,4.081,1.219,4.929,1.219A58.136,58.136,0,0,0,13.144-.053Zm1.643-26.288c1.113,0,1.7,1.113,1.7,4.028,0,5.883-.742,9.116-2.226,9.116-.8,0-1.166-.848-1.166-4.77C13.091-24.7,13.727-26.341,14.787-26.341ZM55.332-9.805c0-2.7-.583-4.24-1.378-4.24a1.6,1.6,0,0,0-.954.477,16.805,16.805,0,0,1-9.54,3.127c-1.749,0-2.438-.477-2.438-1.272,0-.848.8-1.219,2.862-1.749,4.717-1.219,11.024-3.021,11.024-11.925,0-6.254-4.346-9.328-10.229-9.328-8.215,0-15.317,5.3-15.317,19.186C29.362-7.049,32.595.8,42.771.8,49.4.8,55.332-3.074,55.332-9.805ZM44.785-24.115c0,1.59-1.8,2.491-3.18,3.233a2.91,2.91,0,0,1-1.272.371c-.424,0-.53-.371-.53-.848,0-2.332,1.537-4.452,3.233-4.452A1.626,1.626,0,0,1,44.785-24.115ZM71.762-41.658c-1.325,0-7.367.53-10.441,2.12a1.891,1.891,0,0,0-1.06,1.378c-.424,3.074-.424,4.346-1.855,4.346-.265,0-.424-.053-.689-.053-.53,0-.954.265-1.113,1.272a55.181,55.181,0,0,0-.636,8.056,13.47,13.47,0,0,0,.106,1.643c.106.636.424,1.007.848,1.007.212,0,.424-.053.689-.053.53,0,.742.371.742,1.219,0,1.378-.106,3.71-.106,6.1C58.3-8.533,59.042-1.59,60,.8c.212.583.636.742,1.378.742,3.074,0,9.01-1.166,11.4-2.809a1.176,1.176,0,0,0,.636-.954,6.518,6.518,0,0,0-.318-1.166c-1.219-4.4-2.7-9.964-2.7-15.317,0-.689,0-1.378.053-2.014.053-.9.265-1.537,1.166-1.537.636,0,1.219.212,1.7.212a.741.741,0,0,0,.795-.636,26.49,26.49,0,0,0,.53-5.459,27.588,27.588,0,0,0-.371-4.77c-.159-.636-.424-1.007-.9-1.007s-1.166.265-1.484.265c-.795,0-1.06-.265-1.06-.795,0-2.12,1.378-5.459,1.59-6.1C72.61-41.128,72.4-41.658,71.762-41.658ZM76.585-1.166A1.4,1.4,0,0,0,78.016.159c1.219.106,2.756.106,4.4.106a40.331,40.331,0,0,0,7.049-.371c.53-.159.689-.53.689-1.166,0-1.643-1.59-9.487-1.59-19.027,0-1.166.212-1.961,1.166-1.961.53,0,1.06.318,1.484.318a.741.741,0,0,0,.795-.636,27.526,27.526,0,0,0,.53-5.565,27.588,27.588,0,0,0-.371-4.77c-.159-.636-.424-1.007-.9-1.007s-1.325.159-2.014.159c-1.219,0-1.749-.477-1.749-1.272a1.063,1.063,0,0,1,1.113-1.219c.636,0,1.378.265,1.749.265.318,0,.53-.212.689-.636a34.994,34.994,0,0,0,.9-6.572c0-.742-.212-1.113-.583-1.325s-1.272-.636-3.975-.636c-6.36,0-9.328,2.385-10.494,10.547a107.272,107.272,0,0,0-.689,13.886C76.214-15,76.161-7.42,76.585-1.166ZM101.813.53c3.869,0,6.1-2.968,7.844-2.968.583,0,.9.265.9,1.06,0,.848.371,1.219,1.484,1.325.53.053,1.325.106,2.173.106,1.166,0,2.544-.053,3.6-.159,1.59-.159,2.809-.689,2.915-2.544.424-5.989.636-11.183.636-15.953a107.955,107.955,0,0,0-.742-13.462c-.159-1.484-.742-1.8-1.749-1.855-1.272-.106-3.074-.159-4.823-.159a36.422,36.422,0,0,0-3.657.159c-1.113.106-1.59.53-1.484,1.643.053,1.007.636,6.572.636,16.854,0,2.491-.212,3.763-.848,4.4a1.277,1.277,0,0,1-.954.371c-1.007,0-1.643-1.166-1.643-4.346,0-6.625.583-15.741.583-17.649,0-.742-.265-1.166-1.272-1.272-1.219-.106-2.7-.159-4.293-.159s-3.286.053-4.664.159a1.727,1.727,0,0,0-1.59,1.7c-.318,2.332-1.113,10.971-1.113,14.681C93.757-3.127,95.93.53,101.813.53ZM138.7-1.113c0-1.537-1.272-12.084-1.272-21.677,0-8.268,1.007-18.55,1.007-19.451,0-.742-.53-1.06-1.378-1.113q-2.306-.159-4.77-.159-2.385,0-4.77.159a1.446,1.446,0,0,0-1.537,1.378,189.416,189.416,0,0,0-1.643,25.705c0,5.3.159,10.388.583,14.734A1.538,1.538,0,0,0,126.4,0c1.7.106,3.657.159,5.618.159,2.014,0,3.975-.053,5.618-.159A1.076,1.076,0,0,0,138.7-1.113Z" transform="translate(344 226.156)"/>
  </g>
</svg>
